<?xml version="1.0" encoding="UTF-8"?>
<!DOCTYPE svg PUBLIC "-//W3C//DTD SVG 1.1//EN" "http://www.w3.org/Graphics/SVG/1.1/DTD/svg11.dtd">
<!-- Creator: CorelDRAW 2021 (64-Bit) -->
<svg xmlns="http://www.w3.org/2000/svg" xml:space="preserve" width="48px" height="46px" version="1.1" style="shape-rendering:geometricPrecision; text-rendering:geometricPrecision; image-rendering:optimizeQuality; fill-rule:evenodd; clip-rule:evenodd"
viewBox="0 0 48.35 46.8"
 xmlns:xlink="http://www.w3.org/1999/xlink"
 xmlns:xodm="http://www.corel.com/coreldraw/odm/2003">
 <defs>
  <style type="text/css">
   <![CDATA[
    .str1 {stroke:#2B2A29;stroke-width:0.76;stroke-linecap:round;stroke-linejoin:round;stroke-miterlimit:22.9256}
    .str0 {stroke:#2B2A29;stroke-width:0.05;stroke-linecap:round;stroke-linejoin:round;stroke-miterlimit:22.9256}
    .fil1 {fill:none}
    .fil0 {fill:#2B2A29}
   ]]>
  </style>
 </defs>
 <g id="Capa_x0020_1">
  <metadata id="CorelCorpID_0Corel-Layer"/>
  <g id="_2115142854992">
   <path class="fil0 str0" d="M10.73 46.78c0.39,0 0.78,0 1.16,0 1.17,-2.9 -1.53,-4.04 -6.67,-4.64 -4.56,-1.17 -5.32,-3.67 -2.34,-7.47l1.79 1.51 7.06 -8.57c0.68,-0.97 1.36,-1.22 2.21,-1.21l5.06 -5.73 -0.21 -0.21 0.5 -0.57 -3.87 -3.34 -14.87 16.16c0.51,0.43 1.02,0.86 1.52,1.28 -3.67,4.76 -2.23,7.98 2.91,9.17 4.6,0.55 7.01,1.18 5.75,3.62z"/>
   <polygon class="fil0 str0" points="15.55,26.18 19.37,21.85 19.79,22.23 16.47,26.94 "/>
   <path class="fil0 str0" d="M16.87 16.4l2.16 1.86c1.21,-1.96 3.1,-3.05 5.88,-3l-0.16 -2.85c-3.34,-0.07 -5.99,1.2 -7.88,3.99z"/>
   <path class="fil0 str0" d="M25.78 11.97l0.2 3.56c2.68,-0.2 5.29,-0.58 7.72,-1.51l-0.16 -1.87c-2.68,-0.66 -5.24,-0.54 -7.76,-0.18z"/>
   <line class="fil1 str1" x1="32.12" y1="22.73" x2="34.86" y2= "15.03" />
   <line class="fil1 str1" x1="36.04" y1="15.11" x2="37.1" y2= "20.53" />
   <line class="fil1 str1" x1="37.53" y1="21.43" x2="38.05" y2= "24.3" />
   <line class="fil1 str1" x1="37.37" y1="14.25" x2="45.66" y2= "20.26" />
   <line class="fil1 str1" x1="37.79" y1="12.75" x2="44.81" y2= "12.05" />
   <line class="fil1 str1" x1="45.9" y1="11.91" x2="47.98" y2= "11.68" />
   <line class="fil1 str1" x1="37.23" y1="11.51" x2="44.96" y2= "4.56" />
   <line class="fil1 str1" x1="36.13" y1="10.96" x2="37.76" y2= "5.11" />
   <line class="fil1 str1" x1="38.03" y1="4.07" x2="39.02" y2= "0.38" />
   <line class="fil1 str1" x1="34.81" y1="10.92" x2="31.47" y2= "2.27" />
  </g>
 </g>
</svg>
