<?xml version="1.0" encoding="UTF-8"?>
<!DOCTYPE svg PUBLIC "-//W3C//DTD SVG 1.1//EN" "http://www.w3.org/Graphics/SVG/1.1/DTD/svg11.dtd">
<!-- Creator: CorelDRAW 2021 (64-Bit) -->
<svg xmlns="http://www.w3.org/2000/svg" xml:space="preserve" width="64px" height="64px" version="1.1" style="shape-rendering:geometricPrecision; text-rendering:geometricPrecision; image-rendering:optimizeQuality; fill-rule:evenodd; clip-rule:evenodd"
viewBox="0 0 60.73 60.73"
 xmlns:xlink="http://www.w3.org/1999/xlink"
 xmlns:xodm="http://www.corel.com/coreldraw/odm/2003">
 <defs>
  <style type="text/css">
   <![CDATA[
    .str2 {stroke:#2B2A29;stroke-width:0.47;stroke-linecap:round;stroke-linejoin:round;stroke-miterlimit:22.9256}
    .str0 {stroke:#2B2A29;stroke-width:1.42;stroke-linecap:round;stroke-linejoin:round;stroke-miterlimit:22.9256}
    .str1 {stroke:#2B2A29;stroke-width:0.07;stroke-linecap:round;stroke-linejoin:round;stroke-miterlimit:22.9256}
    .fil0 {fill:none}
    .fil1 {fill:#1C1B17}
    .fil2 {fill:#2B2A29;fill-rule:nonzero}
   ]]>
  </style>
 </defs>
 <g id="Capa_x0020_1">
  <metadata id="CorelCorpID_0Corel-Layer"/>
  <rect class="fil0" width="60.73" height="60.73"/>
  <polyline class="fil0 str0" points="32.02,37.54 33.28,37.54 33.28,28.09 4.15,28.09 4.15,37.54 5.24,37.54 "/>
  <polygon class="fil0 str0" points="39.86,17.62 52.69,17.62 50.39,30.82 42.41,30.82 "/>
  <line class="fil0 str0" x1="50.39" y1="30.82" x2="52.69" y2= "37.54" />
  <line class="fil0 str0" x1="42.41" y1="30.82" x2="39.86" y2= "37.54" />
  <polygon class="fil1" points="27.61,26.04 28.53,22.54 22.9,22.01 22.44,23.76 "/>
  <path class="fil2 str1" d="M6.45 19.53c-0.1,-0.02 -0.17,-0.07 -0.22,-0.13 -0.05,-0.05 -0.07,-0.11 -0.05,-0.17 0.02,-0.08 0.08,-0.12 0.2,-0.11 0.15,0 0.25,-0.08 0.3,-0.25 0.04,-0.14 0.03,-0.3 -0.02,-0.49 -0.04,-0.19 -0.14,-0.3 -0.3,-0.34 -0.1,-0.03 -0.18,-0.02 -0.24,0.03 -0.06,0.05 -0.11,0.18 -0.17,0.37 -0.05,0.16 -0.12,0.28 -0.24,0.37 -0.11,0.09 -0.23,0.12 -0.37,0.09 -0.24,-0.07 -0.43,-0.23 -0.6,-0.49 -0.16,-0.26 -0.21,-0.5 -0.15,-0.74 0.02,-0.08 0.08,-0.18 0.17,-0.29 0.09,-0.11 0.18,-0.16 0.25,-0.14 0.06,0.02 0.11,0.05 0.16,0.11 0.05,0.06 0.07,0.11 0.05,0.17 -0.01,0.04 -0.04,0.1 -0.08,0.17 -0.05,0.06 -0.07,0.12 -0.09,0.17 -0.03,0.11 -0.02,0.23 0.03,0.36 0.05,0.14 0.12,0.22 0.21,0.24 0.08,0.02 0.14,-0.02 0.2,-0.12l0.1 -0.3c0.03,-0.11 0.09,-0.21 0.17,-0.28 0.08,-0.08 0.17,-0.12 0.28,-0.14 0.11,-0.02 0.23,-0.01 0.36,0.02 0.33,0.09 0.56,0.27 0.67,0.55 0.12,0.27 0.14,0.56 0.06,0.87 -0.05,0.19 -0.14,0.33 -0.28,0.41 -0.13,0.08 -0.26,0.1 -0.4,0.06z"/>
  <line class="fil0 str2" x1="22.68" y1="22.87" x2="7.17" y2= "18.77" />
  <path class="fil0 str2" d="M29.66 18.29l-0.51 1.99c-0.2,0.75 -1.05,0.85 -1.07,-0.28l-20.02 -5.29"/>
  <path class="fil2 str1" d="M6.92 13.46c0.32,0.19 0.56,0.41 0.72,0.67 0.17,0.26 0.22,0.51 0.15,0.76 -0.1,0.39 -0.4,0.52 -0.89,0.39 -0.47,-0.13 -0.91,-0.39 -1.33,-0.79 -0.42,-0.4 -0.6,-0.73 -0.53,-0.99 0.02,-0.08 0.09,-0.19 0.22,-0.3 0.12,-0.11 0.24,-0.16 0.34,-0.13 0.06,0.02 0.12,0.05 0.16,0.11 0.05,0.06 0.06,0.12 0.05,0.17 -0.01,0.03 -0.05,0.07 -0.14,0.14 -0.09,0.06 -0.14,0.12 -0.16,0.2 -0.02,0.08 0.06,0.23 0.26,0.45 0.19,0.22 0.39,0.39 0.6,0.51 0.21,0.12 0.4,0.2 0.57,0.25 0.13,0.03 0.22,0.03 0.27,-0.01 0.05,-0.04 0.09,-0.1 0.11,-0.19 0.04,-0.14 0.01,-0.28 -0.07,-0.43 -0.09,-0.14 -0.22,-0.27 -0.39,-0.39 -0.03,0.2 -0.02,0.4 0.03,0.59 0.01,0.02 0.01,0.05 0,0.09 -0.01,0.04 -0.04,0.08 -0.09,0.09 -0.05,0.02 -0.1,0.02 -0.15,0.01 -0.16,-0.05 -0.26,-0.18 -0.28,-0.4 -0.03,-0.23 0,-0.51 0.09,-0.86 0.02,-0.05 0.04,-0.08 0.09,-0.1 0.05,-0.02 0.1,-0.02 0.16,-0.01 0.1,0.03 0.17,0.09 0.21,0.17z"/>
 </g>
</svg>
