<?xml version="1.0" encoding="UTF-8"?>
<!DOCTYPE svg PUBLIC "-//W3C//DTD SVG 1.1//EN" "http://www.w3.org/Graphics/SVG/1.1/DTD/svg11.dtd">
<!-- Creator: CorelDRAW 2021 (64-Bit) -->
<svg xmlns="http://www.w3.org/2000/svg" xml:space="preserve" width="64px" height="64px" version="1.1" style="shape-rendering:geometricPrecision; text-rendering:geometricPrecision; image-rendering:optimizeQuality; fill-rule:evenodd; clip-rule:evenodd"
viewBox="0 0 30.8 30.8"
 xmlns:xlink="http://www.w3.org/1999/xlink"
 xmlns:xodm="http://www.corel.com/coreldraw/odm/2003">
 <defs>
  <style type="text/css">
   <![CDATA[
    .str3 {stroke:#2B2A29;stroke-width:0.48;stroke-linecap:round;stroke-linejoin:round;stroke-miterlimit:22.9256}
    .str0 {stroke:#2B2A29;stroke-width:0.72;stroke-linecap:round;stroke-linejoin:round;stroke-miterlimit:22.9256}
    .str2 {stroke:#2B2A29;stroke-width:0.05;stroke-linecap:round;stroke-linejoin:round;stroke-miterlimit:22.9256}
    .str1 {stroke:#2B2A29;stroke-width:0.04;stroke-linecap:round;stroke-linejoin:round;stroke-miterlimit:22.9256}
    .fil0 {fill:none}
    .fil3 {fill:#FEFEFE}
    .fil2 {fill:#2B2A29}
    .fil4 {fill:#1C1B17}
    .fil1 {fill:#2B2A29;fill-rule:nonzero}
   ]]>
  </style>
 </defs>
 <g id="Capa_x0020_1">
  <metadata id="CorelCorpID_0Corel-Layer"/>
  <polyline class="fil0 str0" points="3.09,12.07 22.5,12.07 22.5,18.5 "/>
  <polyline class="fil0 str0" points="3.09,12.07 3.09,18.5 27.15,18.5 27.15,17.22 "/>
  <path class="fil1 str1" d="M3.58 15.21c0,-0.1 0.04,-0.19 0.1,-0.25 0.07,-0.07 0.14,-0.1 0.24,-0.1 0.11,0 0.19,0.05 0.23,0.17 0.04,0.16 0.2,0.24 0.46,0.24 0.21,0 0.44,-0.04 0.68,-0.14 0.25,-0.1 0.37,-0.24 0.37,-0.41 0,-0.11 -0.04,-0.19 -0.13,-0.23 -0.1,-0.05 -0.29,-0.07 -0.59,-0.08 -0.24,0 -0.44,-0.05 -0.61,-0.14 -0.18,-0.09 -0.26,-0.21 -0.26,-0.36 0,-0.26 0.15,-0.5 0.46,-0.74 0.31,-0.24 0.64,-0.36 0.99,-0.36 0.13,0 0.29,0.03 0.48,0.1 0.19,0.06 0.29,0.14 0.29,0.22 0,0.06 -0.04,0.12 -0.1,0.19 -0.06,0.06 -0.13,0.1 -0.22,0.1 -0.06,0 -0.15,-0.02 -0.27,-0.04 -0.1,-0.03 -0.19,-0.04 -0.27,-0.04 -0.17,0 -0.34,0.04 -0.51,0.12 -0.17,0.09 -0.26,0.18 -0.26,0.28 0,0.09 0.09,0.14 0.26,0.17l0.45 0.02c0.17,0.01 0.33,0.04 0.47,0.1 0.13,0.06 0.23,0.15 0.3,0.25 0.07,0.11 0.1,0.23 0.1,0.38 0,0.36 -0.17,0.64 -0.52,0.83 -0.35,0.2 -0.75,0.29 -1.21,0.29 -0.3,0 -0.52,-0.05 -0.69,-0.16 -0.16,-0.12 -0.24,-0.25 -0.24,-0.41zm5.24 -0.69c-0.14,0.38 -0.37,0.69 -0.68,0.92 -0.3,0.24 -0.64,0.36 -1.01,0.36 -0.59,0 -0.89,-0.27 -0.89,-0.8 0,-0.52 0.21,-1.05 0.62,-1.58 0.41,-0.54 0.81,-0.81 1.19,-0.81 0.14,0 0.31,0.05 0.52,0.14 0.21,0.1 0.31,0.2 0.31,0.31 0,0.07 -0.03,0.14 -0.1,0.2 -0.06,0.07 -0.14,0.1 -0.22,0.1 -0.04,0 -0.12,-0.04 -0.24,-0.11 -0.12,-0.07 -0.24,-0.11 -0.35,-0.11 -0.12,0 -0.3,0.13 -0.54,0.38 -0.24,0.26 -0.4,0.51 -0.5,0.76 -0.09,0.24 -0.13,0.46 -0.13,0.65 0,0.14 0.03,0.24 0.11,0.28 0.07,0.04 0.18,0.06 0.3,0.06 0.22,0 0.41,-0.06 0.58,-0.19 0.18,-0.13 0.31,-0.29 0.41,-0.5 -0.29,0.02 -0.57,0.08 -0.82,0.18 -0.03,0.02 -0.07,0.03 -0.12,0.03 -0.07,0 -0.13,-0.02 -0.17,-0.07 -0.04,-0.05 -0.06,-0.1 -0.06,-0.15 0,-0.18 0.15,-0.31 0.46,-0.4 0.31,-0.09 0.72,-0.13 1.24,-0.13 0.08,0 0.14,0.02 0.18,0.06 0.04,0.05 0.06,0.1 0.06,0.16 0,0.11 -0.05,0.2 -0.15,0.26z"/>
  <path class="fil2 str2" d="M12.08 15.69c1.56,0 2.82,1.27 2.82,2.83 0,1.56 -1.26,2.82 -2.82,2.82 -1.56,0 -2.83,-1.26 -2.83,-2.82 0,-1.56 1.27,-2.83 2.83,-2.83z"/>
  <path class="fil3 str2" d="M12.08 16.31c1.19,0 2.16,1 2.16,2.22 0,1.23 -0.97,2.22 -2.16,2.22 -1.2,0 -2.17,-0.99 -2.17,-2.22 0,-1.22 0.97,-2.22 2.17,-2.22z"/>
  <path class="fil4 str2" d="M12.08 17.62c0.47,0 0.84,0.39 0.84,0.88 0,0.49 -0.37,0.89 -0.84,0.89 -0.46,0 -0.84,-0.4 -0.84,-0.89 0,-0.49 0.38,-0.88 0.84,-0.88z"/>
  <polygon class="fil4 str2" points="10.57,20.09 11.35,18.93 11.92,19.37 11.91,19.34 11.03,20.44 "/>
  <polygon class="fil4 str2" points="12.18,19.33 13.11,20.41 13.6,20.11 12.82,18.92 "/>
  <polygon class="fil4 str2" points="12.92,18.61 12.71,17.91 14.05,17.61 14.21,18.14 "/>
  <polygon class="fil4 str2" points="12.45,17.7 11.74,17.69 11.74,16.34 12.31,16.33 "/>
  <polygon class="fil4 str2" points="9.97,18.08 10.13,17.55 11.43,17.94 11.26,18.66 "/>
  <rect class="fil0" width="30.8" height="30.8"/>
  <path class="fil0 str3" d="M9.01 16.74c1.58,-2.29 4.33,-2.65 6.07,0.08"/>
 </g>
</svg>
