<?xml version="1.0" encoding="UTF-8"?>
<!DOCTYPE svg PUBLIC "-//W3C//DTD SVG 1.1//EN" "http://www.w3.org/Graphics/SVG/1.1/DTD/svg11.dtd">
<!-- Creator: CorelDRAW 2021 (64-Bit) -->
<svg xmlns="http://www.w3.org/2000/svg" xml:space="preserve" width="191.989mm" height="185.831mm" version="1.1" style="shape-rendering:geometricPrecision; text-rendering:geometricPrecision; image-rendering:optimizeQuality; fill-rule:evenodd; clip-rule:evenodd"
viewBox="0 0 19340.03 18719.71"
 xmlns:xlink="http://www.w3.org/1999/xlink"
 xmlns:xodm="http://www.corel.com/coreldraw/odm/2003">
 <defs>
  <style type="text/css">
   <![CDATA[
    .str1 {stroke:#2B2A29;stroke-width:302.21;stroke-linecap:round;stroke-linejoin:round;stroke-miterlimit:22.9256}
    .str0 {stroke:#2B2A29;stroke-width:20.15;stroke-linecap:round;stroke-linejoin:round;stroke-miterlimit:22.9256}
    .fil1 {fill:none}
    .fil0 {fill:#2B2A29}
   ]]>
  </style>
 </defs>
 <g id="Capa_x0020_1">
  <metadata id="CorelCorpID_0Corel-Layer"/>
  <g id="_2079968385168">
   <path class="fil0 str0" d="M4292.87 18709.64c154.71,0 309.42,0 464.13,0 464.84,-1160.11 -614.16,-1614.14 -2667.35,-1856.3 -1825.4,-466.58 -2128.72,-1464.76 -937.56,-2984.88l714.81 601.84 2823.31 -3428.43c272.77,-387.56 547.33,-484.78 884.2,-480.89l2025.11 -2292.08 -83.14 -83.56 199.49 -230.16 -1546.6 -1336.32 -5947.34 6466.25c202.02,170.08 404.05,340.16 606.07,510.24 -1466.03,1904.81 -891.27,3192.83 1163.07,3669.65 1841.26,217.83 2804.51,469.43 2301.81,1444.63z"/>
   <polygon class="fil0 str0" points="6218.76,10470.23 7746.95,8740.86 7915.98,8890.64 6587.9,10776.75 "/>
   <path class="fil0 str0" d="M6745.93 6557.95l863.94 746.54c484.72,-782.88 1240.8,-1219.5 2353.84,-1200.72l-65.37 -1141.07c-1334.83,-28.35 -2396.5,481.96 -3152.41,1595.25z"/>
   <path class="fil0 str0" d="M10311.91 4789.02l81.44 1422c1070.01,-80.39 2115.35,-232.79 3085.36,-605.01l-64.1 -746.54c-1070.21,-265.58 -2093.34,-214.25 -3102.71,-70.44z"/>
   <line class="fil1 str1" x1="12846.2" y1="9092.87" x2="13943.06" y2= "6010.26" />
   <line class="fil1 str1" x1="14415.43" y1="6042.84" x2="14839.57" y2= "8211.59" />
   <line class="fil1 str1" x1="15010.72" y1="8569.73" x2="15219.72" y2= "9719.47" />
   <line class="fil1 str1" x1="14945.35" y1="5699.08" x2="18264.89" y2= "8104.33" />
   <line class="fil1 str1" x1="15113.32" y1="5101.04" x2="17923.31" y2= "4818.21" />
   <line class="fil1 str1" x1="18358.4" y1="4763.63" x2="19188.92" y2= "4673.09" />
   <line class="fil1 str1" x1="14890.98" y1="4605.61" x2="17984.18" y2= "1825.29" />
   <line class="fil1 str1" x1="14452.24" y1="4383.28" x2="15104.85" y2= "2042.12" />
   <line class="fil1 str1" x1="15212.97" y1="1629.4" x2="15608.77" y2= "151.13" />
   <line class="fil1 str1" x1="13921.69" y1="4369.31" x2="12585.58" y2= "907.19" />
  </g>
 </g>
</svg>
