<?xml version="1.0" encoding="UTF-8"?>
<!DOCTYPE svg PUBLIC "-//W3C//DTD SVG 1.1//EN" "http://www.w3.org/Graphics/SVG/1.1/DTD/svg11.dtd">
<!-- Creator: CorelDRAW 2021 (64-Bit) -->
<svg xmlns="http://www.w3.org/2000/svg" xml:space="preserve" width="6.6475mm" height="30.163mm" version="1.1" style="shape-rendering:geometricPrecision; text-rendering:geometricPrecision; image-rendering:optimizeQuality; fill-rule:evenodd; clip-rule:evenodd"
viewBox="0 0 120.17 545.27"
 xmlns:xlink="http://www.w3.org/1999/xlink"
 xmlns:xodm="http://www.corel.com/coreldraw/odm/2003">
 <defs>
  <style type="text/css">
   <![CDATA[
    .str1 {stroke:#2B2A29;stroke-width:4.52;stroke-linecap:round;stroke-linejoin:round;stroke-miterlimit:22.9256}
    .str0 {stroke:#2B2A29;stroke-width:1.38;stroke-linecap:round;stroke-linejoin:round;stroke-miterlimit:22.9256}
    .fil0 {fill:#2B2A29}
   ]]>
  </style>
 </defs>
 <g id="Capa_x0020_1">
  <metadata id="CorelCorpID_0Corel-Layer"/>
  <g id="_2078917839168">
   <path class="fil0 str0" d="M9.89 472.19l18.44 0c4.5,-0.63 7.57,-4.01 9.19,-10.18l0.03 -156.97c0.44,-7.47 3.84,-11.33 10.49,-11.24 4.02,-0.63 5.56,-3.54 7.11,-6.35l0 -76.24c-1.22,-4.94 -4.29,-6.23 -8.37,-6.45l-18.45 0 0 -65.78c-0.82,-12.75 3.4,-24.3 13.07,-34.53l24.46 -28.75c2.12,2.61 4.23,5.22 6.35,7.83l42.24 -49.31 5.03 -16.48 -17.04 -17.04 -16.18 5.33c-13.1,15.82 -26.2,31.65 -39.3,47.47l5.15 6.78 -24.95 29.88c-12.11,14.24 -17.68,28.89 -16.93,43.96l-0.33 70.65c-4.79,0.26 -8.15,3.12 -9.19,10.18l0 247.07c-0.22,5.45 3.42,8.82 9.19,10.18z"/>
   <polygon class="fil0 str0" points="62.72,212.29 62.72,284.75 74.14,283.76 65.46,214.13 "/>
   <path class="fil0 str1" d="M17.43 472.27c3.56,7.2 7.13,14.39 10.7,21.59 3.84,7.76 3.87,5.75 1.81,14.12 -1.7,6.9 -2.54,13.58 -6.19,19.63l-9.29 15.4 3.31 0 9.22 -15.28c3.72,-6.17 4.55,-12.72 6.29,-19.74 2.12,-8.53 1.81,-6.61 -2.12,-14.57l-10.36 -20.99 -3.37 -0.16z"/>
  </g>
 </g>
</svg>
